<mxfile host="65bd71144e">
    <diagram id="dCFQvHe4JGjSt3YuayWd" name="Страница 1">
        <mxGraphModel dx="756" dy="396" grid="1" gridSize="10" guides="1" tooltips="1" connect="1" arrows="1" fold="1" page="1" pageScale="1" pageWidth="827" pageHeight="1169" math="0" shadow="0">
            <root>
                <mxCell id="0"/>
                <mxCell id="1" parent="0"/>
                <mxCell id="Us0tKzqu7k8OJ8cIInzV-1" value="" style="edgeStyle=orthogonalEdgeStyle;rounded=0;orthogonalLoop=1;jettySize=auto;html=1;" parent="1" source="Us0tKzqu7k8OJ8cIInzV-2" target="Us0tKzqu7k8OJ8cIInzV-4" edge="1">
                    <mxGeometry relative="1" as="geometry"/>
                </mxCell>
                <mxCell id="Us0tKzqu7k8OJ8cIInzV-2" value="ArrayWith" style="rounded=1;whiteSpace=wrap;html=1;" parent="1" vertex="1">
                    <mxGeometry x="330" y="10" width="120" height="60" as="geometry"/>
                </mxCell>
                <mxCell id="Us0tKzqu7k8OJ8cIInzV-3" value="" style="edgeStyle=orthogonalEdgeStyle;rounded=0;orthogonalLoop=1;jettySize=auto;html=1;" parent="1" source="Us0tKzqu7k8OJ8cIInzV-4" target="Us0tKzqu7k8OJ8cIInzV-6" edge="1">
                    <mxGeometry relative="1" as="geometry"/>
                </mxCell>
                <mxCell id="Us0tKzqu7k8OJ8cIInzV-4" value="string[] arrayone&amp;nbsp;&lt;br&gt;string arraytwo&lt;br&gt;int count = 0" style="shape=parallelogram;perimeter=parallelogramPerimeter;whiteSpace=wrap;html=1;fixedSize=1;" parent="1" vertex="1">
                    <mxGeometry x="310" y="110" width="160" height="70" as="geometry"/>
                </mxCell>
                <mxCell id="Us0tKzqu7k8OJ8cIInzV-5" value="" style="edgeStyle=orthogonalEdgeStyle;rounded=0;orthogonalLoop=1;jettySize=auto;html=1;" parent="1" source="Us0tKzqu7k8OJ8cIInzV-6" target="Us0tKzqu7k8OJ8cIInzV-9" edge="1">
                    <mxGeometry relative="1" as="geometry"/>
                </mxCell>
                <mxCell id="3" value="" style="edgeStyle=none;html=1;" edge="1" parent="1" source="Us0tKzqu7k8OJ8cIInzV-6" target="2">
                    <mxGeometry relative="1" as="geometry"/>
                </mxCell>
                <mxCell id="Us0tKzqu7k8OJ8cIInzV-6" value="for (int i = 0;&lt;br&gt;i &amp;lt; arrayone.length;&lt;br&gt;i++)" style="shape=hexagon;perimeter=hexagonPerimeter2;whiteSpace=wrap;html=1;fixedSize=1;" parent="1" vertex="1">
                    <mxGeometry x="310" y="210" width="160" height="80" as="geometry"/>
                </mxCell>
                <mxCell id="Us0tKzqu7k8OJ8cIInzV-7" value="" style="edgeStyle=orthogonalEdgeStyle;rounded=0;orthogonalLoop=1;jettySize=auto;html=1;" parent="1" source="Us0tKzqu7k8OJ8cIInzV-9" target="Us0tKzqu7k8OJ8cIInzV-11" edge="1">
                    <mxGeometry relative="1" as="geometry">
                        <Array as="points">
                            <mxPoint x="591" y="390"/>
                        </Array>
                    </mxGeometry>
                </mxCell>
                <mxCell id="Us0tKzqu7k8OJ8cIInzV-8" style="edgeStyle=orthogonalEdgeStyle;rounded=0;orthogonalLoop=1;jettySize=auto;html=1;exitX=0;exitY=0.5;exitDx=0;exitDy=0;entryX=0;entryY=0.5;entryDx=0;entryDy=0;" parent="1" source="Us0tKzqu7k8OJ8cIInzV-9" target="Us0tKzqu7k8OJ8cIInzV-6" edge="1">
                    <mxGeometry relative="1" as="geometry"/>
                </mxCell>
                <mxCell id="Us0tKzqu7k8OJ8cIInzV-9" value="if (arrayone[i].length &amp;lt;= 3)" style="rhombus;whiteSpace=wrap;html=1;" parent="1" vertex="1">
                    <mxGeometry x="277.5" y="350" width="225" height="80" as="geometry"/>
                </mxCell>
                <mxCell id="Us0tKzqu7k8OJ8cIInzV-10" value="" style="edgeStyle=orthogonalEdgeStyle;rounded=0;orthogonalLoop=1;jettySize=auto;html=1;" parent="1" source="Us0tKzqu7k8OJ8cIInzV-11" target="Us0tKzqu7k8OJ8cIInzV-6" edge="1">
                    <mxGeometry relative="1" as="geometry"/>
                </mxCell>
                <mxCell id="Us0tKzqu7k8OJ8cIInzV-11" value="arraytwo[count] = arrayone[i]&lt;br&gt;count++;" style="whiteSpace=wrap;html=1;" parent="1" vertex="1">
                    <mxGeometry x="502.5" y="225" width="177.5" height="50" as="geometry"/>
                </mxCell>
                <mxCell id="Us0tKzqu7k8OJ8cIInzV-12" value="Yes" style="text;html=1;align=center;verticalAlign=middle;resizable=0;points=[];autosize=1;strokeColor=none;fillColor=none;" parent="1" vertex="1">
                    <mxGeometry x="530" y="350" width="40" height="20" as="geometry"/>
                </mxCell>
                <mxCell id="Us0tKzqu7k8OJ8cIInzV-13" value="No" style="text;html=1;align=center;verticalAlign=middle;resizable=0;points=[];autosize=1;strokeColor=none;fillColor=none;" parent="1" vertex="1">
                    <mxGeometry x="275" y="350" width="30" height="20" as="geometry"/>
                </mxCell>
                <mxCell id="2" value="stop" style="ellipse;whiteSpace=wrap;html=1;" vertex="1" parent="1">
                    <mxGeometry x="90" y="220" width="120" height="60" as="geometry"/>
                </mxCell>
            </root>
        </mxGraphModel>
    </diagram>
</mxfile>